<svg width="100" height="150" viewBox="0 0 100 150" fill="none" xmlns="http://www.w3.org/2000/svg">
<g opacity="0.1">
<path d="M0.5 12C0.5 5.37258 5.87258 0 12.5 0H88.5C95.1274 0 100.5 5.37258 100.5 12V88C100.5 94.6274 95.1274 100 88.5 100H12.5C5.87258 100 0.5 94.6274 0.5 88V12Z" fill="#114B9F"/>
<path d="M50.5 62C50.5 55.3726 55.8726 50 62.5 50H138.5C145.127 50 150.5 55.3726 150.5 62V138C150.5 144.627 145.127 150 138.5 150H62.5C55.8726 150 50.5 144.627 50.5 138V62Z" fill="#114B9F"/>
</g>
</svg>
