<svg width="51" height="59" viewBox="0 0 51 59" fill="none" xmlns="http://www.w3.org/2000/svg">
<path d="M15.4422 1.60527C15.8416 1.32566 15.9387 0.775386 15.6591 0.376625C15.3795 -0.0228247 14.8292 -0.119934 14.4298 0.159681C14.0303 0.439296 13.9332 0.989572 14.2129 1.38902C14.4925 1.78778 15.0427 1.8842 15.4422 1.60527Z" fill="white"/>
<path d="M10.1626 3.35657C9.63226 3.72778 9.50347 4.45849 9.87537 4.9888C10.2466 5.5191 10.9773 5.64789 11.5076 5.27668C12.0379 4.90547 12.1667 4.17475 11.7955 3.64444C11.4236 3.11414 10.6929 2.98535 10.1626 3.35657Z" fill="white"/>
<path d="M6.58542 7.2534C5.9463 7.70106 5.79066 8.58191 6.23832 9.22172C6.68597 9.86153 7.56752 10.0165 8.20664 9.56883C8.84645 9.12117 9.0014 8.23962 8.55375 7.59982C8.10609 6.9607 7.22523 6.80574 6.58542 7.2534Z" fill="white"/>
<path d="M4.72592 14.6508C5.61406 14.6508 6.33405 13.9308 6.33405 13.0427C6.33405 12.1546 5.61406 11.4346 4.72592 11.4346C3.83777 11.4346 3.11779 12.1546 3.11779 13.0427C3.11779 13.9308 3.83777 14.6508 4.72592 14.6508Z" fill="white"/>
<path d="M1.89189 16.6227C1.09506 17.1805 0.90153 18.2797 1.45938 19.0765C2.01723 19.8734 3.11572 20.0676 3.91325 19.509C4.71008 18.9512 4.90429 17.852 4.34644 17.0552C3.7879 16.259 2.68873 16.0648 1.89189 16.6227Z" fill="white"/>
<path d="M0.891894 21.7824C0.0378984 22.3802 -0.1694 23.5579 0.428397 24.4118C1.02619 25.2658 2.20319 25.4731 3.05718 24.8753C3.91049 24.2775 4.11848 23.1006 3.52069 22.2466C2.92289 21.3919 1.7452 21.1846 0.891894 21.7824Z" fill="white"/>
<path d="M3.09919 30.2852C3.99038 29.6613 4.20663 28.4333 3.58266 27.5421C2.95869 26.6509 1.73073 26.4347 0.840237 27.0586C-0.0502606 27.6826 -0.267894 28.9106 0.356074 29.8018C0.979353 30.6923 2.20801 30.9092 3.09919 30.2852Z" fill="white"/>
<path d="M4.06407 35.6076C4.98763 34.9609 5.21214 33.6875 4.56545 32.764C3.91806 31.8397 2.64465 31.6152 1.72109 32.2619C0.797536 32.9086 0.573014 34.182 1.21971 35.1062C1.8664 36.0298 3.13983 36.2543 4.06407 35.6076Z" fill="white"/>
<path d="M5.90774 40.6501C6.843 39.9952 7.06958 38.7066 6.41531 37.7713C5.76035 36.8361 4.47178 36.6088 3.53652 37.2638C2.60126 37.9187 2.37398 39.2073 3.02826 40.1426C3.68321 41.0778 4.97247 41.3051 5.90774 40.6501Z" fill="white"/>
<path d="M7.39741 45.6768C8.55295 45.6768 9.4897 44.74 9.4897 43.5845C9.4897 42.4289 8.55295 41.4922 7.39741 41.4922C6.24187 41.4922 5.30512 42.4289 5.30512 43.5845C5.30512 44.74 6.24187 45.6768 7.39741 45.6768Z" fill="white"/>
<path d="M12.5234 46.5014C11.8685 45.5661 10.5806 45.3395 9.64534 45.9945C8.71008 46.6494 8.48212 47.938 9.13708 48.8733C9.79204 49.8085 11.0813 50.0358 12.0166 49.3808C12.9511 48.7252 13.1784 47.4366 12.5234 46.5014Z" fill="white"/>
<path d="M16.5958 49.9568C15.9484 49.0326 14.6757 48.8081 13.7514 49.4548C12.8279 50.1015 12.6033 51.3749 13.25 52.2991C13.8967 53.2227 15.1702 53.4472 16.0937 52.8005C17.0179 52.1531 17.2425 50.8804 16.5958 49.9568Z" fill="white"/>
<path d="M21.1667 52.6696C20.5428 51.7784 19.3155 51.5628 18.4236 52.1868C17.5324 52.8108 17.3162 54.038 17.9394 54.9292C18.5634 55.8204 19.7914 56.0374 20.6826 55.4134C21.5744 54.7887 21.7907 53.5608 21.1667 52.6696Z" fill="white"/>
<path d="M23.4945 54.0793C22.6406 54.6771 22.4326 55.8541 23.0304 56.7074C23.6288 57.5621 24.8058 57.7687 25.6598 57.1709C26.5131 56.5731 26.7211 55.3961 26.1233 54.5421C25.5249 53.6888 24.3479 53.4815 23.4945 54.0793Z" fill="white"/>
<path d="M28.8279 55.1121C28.0304 55.6706 27.8368 56.7691 28.3954 57.5666C28.9532 58.3635 30.0517 58.557 30.8492 57.9984C31.6461 57.4406 31.8403 56.3421 31.2824 55.5453C30.7239 54.7471 29.6254 54.5535 28.8279 55.1121Z" fill="white"/>
<path d="M34.259 55.2454C33.5311 55.7551 33.3541 56.7571 33.8637 57.4844C34.3733 58.2117 35.3761 58.3894 36.1041 57.8797C36.8313 57.3708 37.0083 56.3673 36.4987 55.6394C35.989 54.9128 34.987 54.7365 34.259 55.2454Z" fill="white"/>
<path d="M40.445 57.055C41.2255 57.055 41.8582 56.4222 41.8582 55.6417C41.8582 54.8612 41.2255 54.2285 40.445 54.2285C39.6645 54.2285 39.0318 54.8612 39.0318 55.6417C39.0318 56.4222 39.6645 57.055 40.445 57.055Z" fill="white"/>
<path d="M44.7955 52.8541C44.2652 53.2253 44.1364 53.9567 44.5077 54.487C44.8782 55.0167 45.6096 55.1461 46.1399 54.7742C46.6702 54.403 46.7983 53.6723 46.4278 53.142C46.0566 52.6117 45.3252 52.4829 44.7955 52.8541Z" fill="white"/>
<path d="M49.6103 50.4028C49.2108 50.6824 49.1137 51.2327 49.394 51.6328C49.673 52.0316 50.2239 52.1287 50.6234 51.8491C51.0228 51.5695 51.1199 51.0192 50.8403 50.6204C50.5607 50.2203 50.0097 50.1232 49.6103 50.4028Z" fill="white"/>
<path d="M24.7122 1.53455C25.1184 1.53455 25.4477 1.20524 25.4477 0.799015C25.4477 0.392789 25.1184 0.0634766 24.7122 0.0634766C24.3059 0.0634766 23.9766 0.392789 23.9766 0.799015C23.9766 1.20524 24.3059 1.53455 24.7122 1.53455Z" fill="white"/>
<path d="M20.1337 1.84656C19.6219 2.03252 19.3582 2.59794 19.5448 3.10965C19.7308 3.62067 20.2962 3.88445 20.8079 3.69781C21.3189 3.51186 21.5827 2.94643 21.3967 2.43541C21.2101 1.9237 20.6447 1.65993 20.1337 1.84656Z" fill="white"/>
<path d="M16.2301 4.33053C15.6102 4.55642 15.2907 5.241 15.5166 5.86084C15.7418 6.47998 16.427 6.79954 17.0469 6.57433C17.666 6.34913 17.9856 5.66386 17.7604 5.04472C17.5345 4.42419 16.8492 4.10532 16.2301 4.33053Z" fill="white"/>
<path d="M12.8685 7.48104C12.1619 7.73793 11.7976 8.51961 12.0551 9.22691C12.312 9.93352 13.0937 10.2985 13.8003 10.041C14.5076 9.78339 14.8719 9.0017 14.6144 8.29509C14.3568 7.58848 13.5751 7.22346 12.8685 7.48104Z" fill="white"/>
<path d="M10.1453 11.1877C9.36986 11.4701 8.96973 12.3282 9.25209 13.1037C9.53446 13.8792 10.3926 14.2793 11.1681 13.9969C11.9436 13.7146 12.3437 12.8565 12.0613 12.081C11.7783 11.3055 10.9208 10.9053 10.1453 11.1877Z" fill="white"/>
<path d="M8.13294 15.3218C7.30099 15.6249 6.87192 16.5443 7.17495 17.3762C7.47798 18.2082 8.3981 18.6373 9.22937 18.3349C10.0613 18.0319 10.4904 17.1118 10.188 16.2798C9.88501 15.4479 8.96421 15.0188 8.13294 15.3218Z" fill="white"/>
<path d="M7.46696 23.0145C8.39162 23.0145 9.14121 22.2649 9.14121 21.3403C9.14121 20.4156 8.39162 19.666 7.46696 19.666C6.5423 19.666 5.79272 20.4156 5.79272 21.3403C5.79272 22.2649 6.5423 23.0145 7.46696 23.0145Z" fill="white"/>
<path d="M7.65016 27.6282C8.55099 27.3004 9.01586 26.3032 8.68804 25.4024C8.36022 24.5015 7.36366 24.036 6.46214 24.3638C5.56062 24.6923 5.09575 25.6889 5.42426 26.5897C5.75209 27.4912 6.74865 27.9561 7.65016 27.6282Z" fill="white"/>
<path d="M8.06545 32.3054C8.97798 31.9734 9.44837 30.9638 9.11642 30.0512C8.78446 29.1387 7.7755 28.6676 6.86228 29.0003C5.94974 29.3322 5.47935 30.3419 5.812 31.2544C6.14464 32.1669 7.1536 32.638 8.06545 32.3054Z" fill="white"/>
<path d="M9.28584 36.8417C10.2094 36.5056 10.686 35.4843 10.3499 34.56C10.0138 33.6358 8.99176 33.1599 8.0682 33.496C7.14396 33.8321 6.66806 34.8534 7.00484 35.7777C7.34093 36.7012 8.3616 37.1778 9.28584 36.8417Z" fill="white"/>
<path d="M12.3017 38.8099C11.9697 37.8974 10.9608 37.427 10.0475 37.7596C9.13501 38.0916 8.66462 39.1005 8.99658 40.0131C9.32854 40.9256 10.3375 41.396 11.25 41.064C12.1633 40.7314 12.6336 39.7224 12.3017 38.8099Z" fill="white"/>
<path d="M14.9594 42.6503C14.6316 41.7495 13.635 41.2846 12.7342 41.6124C11.8327 41.9402 11.3678 42.9368 11.6956 43.8383C12.0241 44.7405 13.02 45.2047 13.9222 44.8769C14.823 44.5484 15.2879 43.5525 14.9594 42.6503Z" fill="white"/>
<path d="M16.635 48.224C17.5597 48.224 18.3093 47.4744 18.3093 46.5497C18.3093 45.6251 17.5597 44.8755 16.635 44.8755C15.7104 44.8755 14.9608 45.6251 14.9608 46.5497C14.9608 47.4744 15.7104 48.224 16.635 48.224Z" fill="white"/>
<path d="M19.9174 47.7233C19.0854 48.0263 18.6557 48.9457 18.9587 49.7777C19.2618 50.6096 20.1819 51.0387 21.0138 50.7364C21.8458 50.4333 22.2742 49.5132 21.9718 48.6813C21.6688 47.8486 20.7487 47.4202 19.9174 47.7233Z" fill="white"/>
<path d="M24.1888 49.8026C23.4133 50.085 23.0131 50.9417 23.2955 51.7179C23.5779 52.4934 24.436 52.8935 25.2108 52.6112C25.9863 52.3288 26.3864 51.4707 26.1047 50.6952C25.8224 49.919 24.9642 49.5203 24.1888 49.8026Z" fill="white"/>
<path d="M28.7466 51.1422C28.04 51.399 27.6757 52.1814 27.9333 52.8887C28.1901 53.5946 28.9718 53.9597 29.6784 53.7028C30.3857 53.4452 30.7501 52.6635 30.4925 51.9576C30.2349 51.2496 29.4532 50.8846 28.7466 51.1422Z" fill="white"/>
<path d="M33.4594 51.7128C32.8396 51.9387 32.52 52.6233 32.7459 53.2438C32.9711 53.863 33.6564 54.1825 34.2762 53.9573C34.8954 53.7321 35.2149 53.0469 34.9897 52.4277C34.7638 51.8065 34.0786 51.4876 33.4594 51.7128Z" fill="white"/>
<path d="M38.5249 53.4135C39.0688 53.4135 39.5097 52.9726 39.5097 52.4287C39.5097 51.8848 39.0688 51.4438 38.5249 51.4438C37.981 51.4438 37.54 51.8848 37.54 52.4287C37.54 52.9726 37.981 53.4135 38.5249 53.4135Z" fill="white"/>
<path d="M43.0607 51.9453C43.4665 51.9453 43.7955 51.6163 43.7955 51.2104C43.7955 50.8046 43.4665 50.4756 43.0607 50.4756C42.6548 50.4756 42.3258 50.8046 42.3258 51.2104C42.3258 51.6163 42.6548 51.9453 43.0607 51.9453Z" fill="white"/>
<path d="M32.697 3.70429C33.0235 3.67605 33.2645 3.38817 33.2363 3.06104C33.2081 2.73459 32.9202 2.49354 32.5937 2.52178C32.2673 2.55002 32.0262 2.83789 32.0545 3.16434C32.0834 3.49148 32.3713 3.73252 32.697 3.70429Z" fill="white"/>
<path d="M28.9023 4.54528C29.3404 4.54528 29.6957 4.19006 29.6957 3.75189C29.6957 3.31371 29.3404 2.9585 28.9023 2.9585C28.4641 2.9585 28.1089 3.31371 28.1089 3.75189C28.1089 4.19006 28.4641 4.54528 28.9023 4.54528Z" fill="white"/>
<path d="M25.2335 4.04375C24.706 4.08989 24.3155 4.55477 24.3616 5.08232C24.4078 5.60987 24.8733 6.00036 25.4002 5.95422C25.9277 5.90807 26.3182 5.4432 26.2721 4.91565C26.2266 4.38741 25.7611 3.9976 25.2335 4.04375Z" fill="white"/>
<path d="M21.8933 5.7279C21.2893 5.78093 20.8423 6.31398 20.8954 6.91798C20.9484 7.52198 21.4815 7.96894 22.0848 7.91591C22.6888 7.86288 23.1357 7.32983 23.0827 6.72652C23.0297 6.12252 22.4973 5.67487 21.8933 5.7279Z" fill="white"/>
<path d="M18.9022 7.96322C18.2363 8.02176 17.7438 8.60854 17.8024 9.27452C17.8609 9.9405 18.4477 10.4329 19.1137 10.3744C19.779 10.3158 20.2714 9.72906 20.2135 9.06308C20.1557 8.3971 19.5675 7.90468 18.9022 7.96322Z" fill="white"/>
<path d="M16.3382 10.6807C15.6254 10.7434 15.0978 11.3715 15.1605 12.0843C15.2232 12.7978 15.8513 13.3254 16.5641 13.2627C17.2776 13.2 17.8051 12.5719 17.7425 11.8584C17.6805 11.1456 17.0517 10.6188 16.3382 10.6807Z" fill="white"/>
<path d="M14.5076 16.5122C15.2569 16.4468 15.8113 15.7863 15.7459 15.037C15.6805 14.2877 15.02 13.7333 14.27 13.7987C13.5207 13.8641 12.967 14.5246 13.0324 15.2746C13.0978 16.0232 13.7583 16.5776 14.5076 16.5122Z" fill="white"/>
<path d="M13.0007 20.0425C13.779 19.9743 14.354 19.2884 14.2859 18.5108C14.2177 17.7333 13.5317 17.1575 12.7542 17.2257C11.9766 17.2939 11.4009 17.9798 11.469 18.7574C11.5372 19.5349 12.2232 20.1107 13.0007 20.0425Z" fill="white"/>
<path d="M11.9622 23.7578C12.7586 23.7578 13.4043 23.1122 13.4043 22.3157C13.4043 21.5192 12.7586 20.8735 11.9622 20.8735C11.1657 20.8735 10.52 21.5192 10.52 22.3157C10.52 23.1122 11.1657 23.7578 11.9622 23.7578Z" fill="white"/>
<path d="M11.7955 27.5548C12.5985 27.4845 13.1929 26.7765 13.1226 25.9742C13.0524 25.1711 12.3444 24.5775 11.5414 24.6477C10.7383 24.718 10.1447 25.426 10.2149 26.2283C10.2852 27.0313 10.9925 27.625 11.7955 27.5548Z" fill="white"/>
<path d="M11.998 31.3421C12.804 31.3421 13.4573 30.6887 13.4573 29.8827C13.4573 29.0767 12.804 28.4233 11.998 28.4233C11.192 28.4233 10.5386 29.0767 10.5386 29.8827C10.5386 30.6887 11.192 31.3421 11.998 31.3421Z" fill="white"/>
<path d="M14.3788 33.4344C14.3093 32.6417 13.6102 32.0542 12.8168 32.1238C12.0235 32.1933 11.4367 32.8924 11.5055 33.6857C11.5744 34.4791 12.2741 35.0666 13.0682 34.997C13.8609 34.9282 14.4477 34.2278 14.3788 33.4344Z" fill="white"/>
<path d="M15.8892 36.9063C15.821 36.1288 15.1357 35.553 14.3575 35.6212C13.5792 35.6894 13.0042 36.3753 13.0717 37.1529C13.1398 37.9311 13.8258 38.5062 14.6033 38.438C15.3809 38.3698 15.9573 37.6846 15.8892 36.9063Z" fill="white"/>
<path d="M16.4539 38.8392C15.7046 38.9047 15.1502 39.5651 15.2163 40.3144C15.2817 41.0638 15.9422 41.6175 16.6915 41.5521C17.4408 41.4866 17.9952 40.8262 17.9298 40.0768C17.8637 39.3275 17.2032 38.7738 16.4539 38.8392Z" fill="white"/>
<path d="M19.0427 41.6828C18.3299 41.7454 17.8024 42.3749 17.8651 43.087C17.9277 43.8005 18.5558 44.3281 19.2686 44.2654C19.9821 44.2028 20.5097 43.5747 20.447 42.8612C20.3843 42.149 19.7556 41.6201 19.0427 41.6828Z" fill="white"/>
<path d="M22.0524 44.0877C21.3864 44.1463 20.894 44.733 20.9525 45.3977C21.0111 46.0636 21.5978 46.5561 22.2638 46.4975C22.9291 46.439 23.4215 45.8522 23.3637 45.1862C23.3051 44.5216 22.7184 44.0292 22.0524 44.0877Z" fill="white"/>
<path d="M25.4994 48.1858C26.1057 48.1858 26.5972 47.6943 26.5972 47.088C26.5972 46.4817 26.1057 45.9902 25.4994 45.9902C24.8931 45.9902 24.4016 46.4817 24.4016 47.088C24.4016 47.6943 24.8931 48.1858 25.4994 48.1858Z" fill="white"/>
<path d="M29.0076 47.3518C28.4801 47.398 28.0903 47.8636 28.1364 48.3904C28.1826 48.9173 28.6474 49.3085 29.175 49.2623C29.7025 49.2162 30.093 48.7506 30.0469 48.2231C30.0001 47.6962 29.5352 47.3057 29.0076 47.3518Z" fill="white"/>
<path d="M32.7673 48.1236C32.3306 48.1615 32.0076 48.5472 32.0462 48.9838C32.0841 49.4205 32.4698 49.7428 32.9057 49.7049C33.3424 49.667 33.6661 49.282 33.6275 48.8461C33.5889 48.4094 33.2039 48.0857 32.7673 48.1236Z" fill="white"/>
<path d="M36.5992 48.304C36.2728 48.3322 36.0318 48.6201 36.06 48.9459C36.0889 49.2723 36.3761 49.5141 36.7026 49.4858C37.029 49.4576 37.27 49.1697 37.2418 48.8426C37.2136 48.5175 36.9257 48.2758 36.5992 48.304Z" fill="white"/>
<path d="M38.1048 7.61133C38.3534 7.65541 38.5903 7.48943 38.6344 7.24081C38.6784 6.99218 38.5118 6.75527 38.2638 6.71119C38.0152 6.66712 37.7783 6.83309 37.7342 7.08171C37.6895 7.33034 37.8561 7.56725 38.1048 7.61133Z" fill="white"/>
<path d="M35.1936 7.48113C35.5306 7.48113 35.8038 7.20794 35.8038 6.87094C35.8038 6.53394 35.5306 6.26074 35.1936 6.26074C34.8566 6.26074 34.5834 6.53394 34.5834 6.87094C34.5834 7.20794 34.8566 7.48113 35.1936 7.48113Z" fill="white"/>
<path d="M32.3244 6.32762C31.9243 6.25737 31.5428 6.52459 31.4718 6.92473C31.4009 7.32487 31.6688 7.70641 32.0689 7.77666C32.4691 7.8469 32.8506 7.58038 32.9215 7.18024C32.9918 6.77941 32.7246 6.39786 32.3244 6.32762Z" fill="white"/>
<path d="M29.2687 8.54177C29.7327 8.54177 30.1089 8.16559 30.1089 7.70155C30.1089 7.23751 29.7327 6.86133 29.2687 6.86133C28.8046 6.86133 28.4284 7.23751 28.4284 7.70155C28.4284 8.16559 28.8046 8.54177 29.2687 8.54177Z" fill="white"/>
<path d="M26.4766 9.72103C26.9829 9.72103 27.3933 9.31062 27.3933 8.80436C27.3933 8.2981 26.9829 7.8877 26.4766 7.8877C25.9704 7.8877 25.56 8.2981 25.56 8.80436C25.56 9.31062 25.9704 9.72103 26.4766 9.72103Z" fill="white"/>
<path d="M23.8912 11.3207C24.4397 11.3207 24.8844 10.8761 24.8844 10.3276C24.8844 9.77911 24.4397 9.33447 23.8912 9.33447C23.3428 9.33447 22.8981 9.77911 22.8981 10.3276C22.8981 10.8761 23.3428 11.3207 23.8912 11.3207Z" fill="white"/>
<path d="M21.5737 13.2934C22.1584 13.2934 22.6323 12.8194 22.6323 12.2348C22.6323 11.6502 22.1584 11.1763 21.5737 11.1763C20.9891 11.1763 20.5152 11.6502 20.5152 12.2348C20.5152 12.8194 20.9891 13.2934 21.5737 13.2934Z" fill="white"/>
<path d="M19.3919 15.5603C19.989 15.6657 20.5586 15.2669 20.664 14.6698C20.7693 14.0727 20.3706 13.5031 19.7735 13.3977C19.1764 13.2924 18.6075 13.6911 18.5021 14.2882C18.3967 14.886 18.7948 15.4549 19.3919 15.5603Z" fill="white"/>
<path d="M17.7721 18.1217C18.3864 18.2298 18.9718 17.8201 19.0806 17.205C19.1888 16.5907 18.779 16.0053 18.1646 15.8972C17.5496 15.7891 16.9642 16.1988 16.8561 16.8132C16.7473 17.4275 17.1578 18.0129 17.7721 18.1217Z" fill="white"/>
<path d="M16.7714 20.9048C17.4024 20.9048 17.914 20.3932 17.914 19.7622C17.914 19.1312 17.4024 18.6196 16.7714 18.6196C16.1404 18.6196 15.6288 19.1312 15.6288 19.7622C15.6288 20.3932 16.1404 20.9048 16.7714 20.9048Z" fill="white"/>
<path d="M16.0207 23.824C16.659 23.824 17.1764 23.3066 17.1764 22.6683C17.1764 22.0301 16.659 21.5127 16.0207 21.5127C15.3825 21.5127 14.8651 22.0301 14.8651 22.6683C14.8651 23.3066 15.3825 23.824 16.0207 23.824Z" fill="white"/>
<path d="M15.728 26.8008C16.359 26.8008 16.8706 26.2892 16.8706 25.6582C16.8706 25.0272 16.359 24.5156 15.728 24.5156C15.097 24.5156 14.5854 25.0272 14.5854 25.6582C14.5854 26.2892 15.097 26.8008 15.728 26.8008Z" fill="white"/>
<path d="M17.02 28.8524C17.1281 28.2381 16.7177 27.6513 16.104 27.5432C15.4897 27.435 14.9036 27.8455 14.7955 28.4598C14.6874 29.0742 15.0978 29.6596 15.7122 29.7684C16.3251 29.8765 16.9112 29.4667 17.02 28.8524Z" fill="white"/>
<path d="M16.5551 32.6824C17.1614 32.6824 17.6529 32.1909 17.6529 31.5846C17.6529 30.9783 17.1614 30.4868 16.5551 30.4868C15.9488 30.4868 15.4573 30.9783 15.4573 31.5846C15.4573 32.1909 15.9488 32.6824 16.5551 32.6824Z" fill="white"/>
<path d="M17.6557 35.4359C18.2403 35.4359 18.7142 34.962 18.7142 34.3774C18.7142 33.7928 18.2403 33.3188 17.6557 33.3188C17.0711 33.3188 16.5971 33.7928 16.5971 34.3774C16.5971 34.962 17.0711 35.4359 17.6557 35.4359Z" fill="white"/>
<path d="M19.1777 37.9569C19.7262 37.9569 20.1708 37.5123 20.1708 36.9638C20.1708 36.4153 19.7262 35.9707 19.1777 35.9707C18.6292 35.9707 18.1846 36.4153 18.1846 36.9638C18.1846 37.5123 18.6292 37.9569 19.1777 37.9569Z" fill="white"/>
<path d="M21.2418 38.3799C20.7438 38.2917 20.2679 38.6244 20.1805 39.123C20.093 39.6209 20.4257 40.0968 20.9236 40.1843C21.4222 40.2724 21.8981 39.9391 21.9856 39.4412C22.0737 38.9426 21.7411 38.468 21.2418 38.3799Z" fill="white"/>
<path d="M23.4725 40.448C23.0159 40.3674 22.5799 40.6718 22.4994 41.1291C22.4188 41.5857 22.7239 42.021 23.1812 42.1016C23.6378 42.1821 24.0731 41.877 24.1536 41.4204C24.2342 40.9638 23.9291 40.5286 23.4725 40.448Z" fill="white"/>
<path d="M25.8547 43.6273C26.261 43.6273 26.5903 43.298 26.5903 42.8918C26.5903 42.4856 26.261 42.1562 25.8547 42.1562C25.4485 42.1562 25.1192 42.4856 25.1192 42.8918C25.1192 43.298 25.4485 43.6273 25.8547 43.6273Z" fill="white"/>
<path d="M28.6068 44.7004C28.9438 44.7004 29.217 44.4272 29.217 44.0902C29.217 43.7532 28.9438 43.48 28.6068 43.48C28.2698 43.48 27.9966 43.7532 27.9966 44.0902C27.9966 44.4272 28.2698 44.7004 28.6068 44.7004Z" fill="white"/>
<path d="M31.6185 44.3963C31.3699 44.3522 31.133 44.5182 31.0889 44.7675C31.0448 45.0161 31.2115 45.253 31.4601 45.2964C31.7088 45.3405 31.9457 45.1745 31.9897 44.9259C32.0331 44.6772 31.8665 44.4403 31.6185 44.3963Z" fill="white"/>
<path d="M40.54 12.4443C40.7032 12.5201 40.8975 12.4492 40.9732 12.2859C41.0497 12.1227 40.9787 11.9292 40.8155 11.8527C40.6523 11.777 40.4588 11.8472 40.3823 12.0105C40.3066 12.1737 40.3768 12.3679 40.54 12.4443Z" fill="white"/>
<path d="M38.5386 11.7729C38.779 11.7729 38.9739 11.578 38.9739 11.3376C38.9739 11.0972 38.779 10.9023 38.5386 10.9023C38.2983 10.9023 38.1034 11.0972 38.1034 11.3376C38.1034 11.578 38.2983 11.7729 38.5386 11.7729Z" fill="white"/>
<path d="M36.3031 11.3784C36.5922 11.3784 36.8265 11.144 36.8265 10.855C36.8265 10.5659 36.5922 10.3315 36.3031 10.3315C36.014 10.3315 35.7797 10.5659 35.7797 10.855C35.7797 11.144 36.014 11.3784 36.3031 11.3784Z" fill="white"/>
<path d="M33.7659 11.2591C34.0669 11.3996 34.425 11.2694 34.5655 10.9685C34.706 10.6668 34.5758 10.3094 34.2749 10.1689C33.9732 10.0284 33.6158 10.1585 33.4746 10.4602C33.3341 10.7605 33.4643 11.1186 33.7659 11.2591Z" fill="white"/>
<path d="M31.4656 11.51C31.7941 11.6629 32.184 11.521 32.3375 11.1925C32.4904 10.8647 32.3486 10.4742 32.02 10.3213C31.6915 10.1684 31.3017 10.3103 31.1488 10.6381C30.9959 10.9673 31.1371 11.3571 31.4656 11.51Z" fill="white"/>
<path d="M29.2218 12.098C29.5772 12.2633 29.9987 12.1097 30.1647 11.7544C30.33 11.399 30.1764 10.9775 29.8217 10.8115C29.4663 10.6455 29.0441 10.7991 28.8788 11.1545C28.7129 11.5099 28.8665 11.932 29.2218 12.098Z" fill="white"/>
<path d="M27.0827 13.0085C27.4649 13.1868 27.9188 13.0209 28.0972 12.6393C28.2755 12.2571 28.1096 11.8032 27.728 11.6255C27.3458 11.4472 26.8926 11.6125 26.7142 11.9947C26.5359 12.3769 26.7005 12.8301 27.0827 13.0085Z" fill="white"/>
<path d="M25.4401 14.2632C25.8715 14.2632 26.2211 13.9135 26.2211 13.4822C26.2211 13.0508 25.8715 12.7012 25.4401 12.7012C25.0088 12.7012 24.6591 13.0508 24.6591 13.4822C24.6591 13.9135 25.0088 14.2632 25.4401 14.2632Z" fill="white"/>
<path d="M23.3334 15.6539C23.7328 15.8405 24.208 15.6677 24.3947 15.2675C24.5813 14.8674 24.4085 14.3922 24.0083 14.2055C23.6082 14.0189 23.133 14.1918 22.9463 14.5919C22.7604 14.992 22.9332 15.4672 23.3334 15.6539Z" fill="white"/>
<path d="M21.7934 17.3661C22.2018 17.5569 22.6881 17.3792 22.8782 16.9708C23.0689 16.5617 22.8919 16.0761 22.4835 15.8854C22.0744 15.6946 21.5889 15.8716 21.3981 16.2807C21.208 16.6891 21.3843 17.1753 21.7934 17.3661Z" fill="white"/>
<path d="M20.5248 19.2887C20.9422 19.4837 21.4388 19.3025 21.6337 18.8845C21.8286 18.4671 21.6474 17.9706 21.2301 17.7757C20.8127 17.5808 20.3162 17.7619 20.1213 18.1792C19.9264 18.5973 20.1075 19.0938 20.5248 19.2887Z" fill="white"/>
<path d="M20.6695 20.9563C20.8644 20.5389 20.6832 20.0417 20.2652 19.8474C19.8478 19.6525 19.3513 19.8337 19.1564 20.251C18.9615 20.6684 19.1426 21.1649 19.56 21.3598C19.978 21.5547 20.4746 21.3743 20.6695 20.9563Z" fill="white"/>
<path d="M20.0049 23.1426C20.1956 22.7336 20.0187 22.248 19.6102 22.0572C19.2012 21.8665 18.7156 22.0435 18.5248 22.4526C18.3348 22.861 18.5111 23.3472 18.9202 23.538C19.3286 23.728 19.8141 23.551 20.0049 23.1426Z" fill="white"/>
<path d="M18.9532 25.862C19.3944 25.862 19.7521 25.5043 19.7521 25.0631C19.7521 24.6218 19.3944 24.2642 18.9532 24.2642C18.512 24.2642 18.1543 24.6218 18.1543 25.0631C18.1543 25.5043 18.512 25.862 18.9532 25.862Z" fill="white"/>
<path d="M19.6922 27.6785C19.874 27.288 19.7053 26.8231 19.3141 26.6413C18.9236 26.4588 18.4587 26.6282 18.2762 27.0187C18.0937 27.4099 18.2631 27.8748 18.6536 28.0573C19.0441 28.2398 19.5104 28.0697 19.6922 27.6785Z" fill="white"/>
<path d="M19.6798 28.9127C19.2976 28.7343 18.8437 28.8996 18.6653 29.2811C18.487 29.6627 18.6523 30.1179 19.0345 30.2963C19.4167 30.4746 19.8706 30.308 20.049 29.9264C20.2266 29.5442 20.062 29.091 19.6798 28.9127Z" fill="white"/>
<path d="M20.3602 31.1357C20.0049 30.9697 19.5827 31.1233 19.4167 31.4794C19.2507 31.8348 19.4043 32.2569 19.7604 32.4229C20.1158 32.5882 20.5372 32.4346 20.7032 32.0792C20.8692 31.7232 20.7156 31.301 20.3602 31.1357Z" fill="white"/>
<path d="M21.3547 33.2311C21.0262 33.0782 20.6364 33.2194 20.4835 33.5472C20.3306 33.875 20.4725 34.2655 20.801 34.4191C21.1295 34.572 21.5193 34.4301 21.6722 34.1016C21.8251 33.7731 21.6832 33.384 21.3547 33.2311Z" fill="white"/>
<path d="M22.6419 35.1518C22.341 35.0113 21.9835 35.1415 21.843 35.4424C21.7025 35.7434 21.8327 36.1015 22.1337 36.242C22.4353 36.3825 22.7934 36.2517 22.9339 35.9507C23.0744 35.6497 22.9436 35.2923 22.6419 35.1518Z" fill="white"/>
<path d="M24.186 36.8767C23.9243 36.7548 23.6123 36.8678 23.4897 37.1301C23.3678 37.3919 23.4815 37.7031 23.7432 37.8257C24.0049 37.9476 24.3169 37.8347 24.4388 37.573C24.5614 37.3106 24.4477 36.9993 24.186 36.8767Z" fill="white"/>
<path d="M25.956 38.3576C25.7384 38.2563 25.4787 38.3507 25.3775 38.5676C25.2755 38.7859 25.3699 39.0449 25.5875 39.1468C25.8052 39.2487 26.0641 39.1537 26.166 38.9354C26.2673 38.7178 26.1736 38.4588 25.956 38.3576Z" fill="white"/>
<path d="M27.7556 40.1862C27.9355 40.1862 28.0813 40.0403 28.0813 39.8604C28.0813 39.6805 27.9355 39.5347 27.7556 39.5347C27.5757 39.5347 27.4298 39.6805 27.4298 39.8604C27.4298 40.0403 27.5757 40.1862 27.7556 40.1862Z" fill="white"/>
<path d="M40.1523 17.3916C40.2377 17.4632 40.3637 17.4522 40.4353 17.3668C40.5063 17.2821 40.4953 17.1554 40.4106 17.0844C40.3252 17.0128 40.1991 17.0238 40.1282 17.1085C40.0566 17.1932 40.0676 17.32 40.1523 17.3916Z" fill="white"/>
<path d="M38.8486 16.5191C38.9608 16.6134 39.1282 16.5989 39.2225 16.4867C39.3169 16.3744 39.3017 16.2064 39.1895 16.112C39.0772 16.0177 38.9099 16.0321 38.8148 16.1451C38.7212 16.2574 38.7356 16.4247 38.8486 16.5191Z" fill="white"/>
<path d="M37.4388 15.8174C37.5731 15.9303 37.7728 15.9131 37.8858 15.7788C37.9987 15.6445 37.9808 15.4448 37.8465 15.3319C37.7122 15.2196 37.5125 15.2368 37.3995 15.3711C37.2866 15.5054 37.3045 15.7051 37.4388 15.8174Z" fill="white"/>
<path d="M35.9415 15.3114C36.0972 15.4416 36.3293 15.4216 36.4601 15.2659C36.5903 15.1103 36.5696 14.8782 36.4147 14.748C36.259 14.6179 36.0269 14.6378 35.8968 14.7928C35.7659 14.9491 35.7866 15.1812 35.9415 15.3114Z" fill="white"/>
<path d="M34.3961 14.9956C34.5648 15.1375 34.8169 15.1148 34.9588 14.9461C35.1006 14.7773 35.0786 14.5259 34.9099 14.3841C34.7411 14.2422 34.4891 14.2642 34.3472 14.433C34.2053 14.6017 34.2273 14.8538 34.3961 14.9956Z" fill="white"/>
<path d="M32.8189 14.891C33.0014 15.0439 33.2728 15.0205 33.4264 14.838C33.5793 14.6562 33.5552 14.3841 33.3727 14.2305C33.1908 14.0777 32.9188 14.1018 32.7659 14.2836C32.613 14.4668 32.6371 14.7381 32.8189 14.891Z" fill="white"/>
<path d="M31.5366 15.1073C31.7918 15.1073 31.9987 14.9004 31.9987 14.6452C31.9987 14.39 31.7918 14.1831 31.5366 14.1831C31.2814 14.1831 31.0744 14.39 31.0744 14.6452C31.0744 14.9004 31.2814 15.1073 31.5366 15.1073Z" fill="white"/>
<path d="M29.6915 15.3105C29.8961 15.4819 30.2019 15.4558 30.3733 15.2505C30.5455 15.0453 30.5187 14.7395 30.3141 14.568C30.1089 14.3959 29.8031 14.4227 29.6316 14.6279C29.4594 14.8325 29.4863 15.1383 29.6915 15.3105Z" fill="white"/>
<path d="M28.2046 15.818C28.414 15.9936 28.7259 15.9667 28.9023 15.7567C29.0786 15.5466 29.051 15.2353 28.841 15.059C28.6316 14.8834 28.3196 14.9109 28.144 15.1203C27.9684 15.3304 27.9952 15.6423 28.2046 15.818Z" fill="white"/>
<path d="M26.8003 16.5231C27.0138 16.7022 27.3327 16.6746 27.5118 16.4604C27.6915 16.2463 27.6633 15.9281 27.4498 15.749C27.2356 15.5693 26.9174 15.5968 26.7383 15.811C26.5586 16.0245 26.5868 16.3434 26.8003 16.5231Z" fill="white"/>
<path d="M25.5042 17.4131C25.7225 17.5963 26.0476 17.5681 26.2308 17.3498C26.414 17.1315 26.3857 16.8064 26.1674 16.6232C25.9498 16.4407 25.624 16.4689 25.4408 16.6873C25.2576 16.9056 25.2866 17.2306 25.5042 17.4131Z" fill="white"/>
<path d="M24.6798 18.5948C24.9704 18.5948 25.206 18.3592 25.206 18.0687C25.206 17.7781 24.9704 17.5425 24.6798 17.5425C24.3892 17.5425 24.1536 17.7781 24.1536 18.0687C24.1536 18.3592 24.3892 18.5948 24.6798 18.5948Z" fill="white"/>
<path d="M23.6757 19.7921C23.9663 19.7921 24.2018 19.5565 24.2018 19.2659C24.2018 18.9753 23.9663 18.7397 23.6757 18.7397C23.3851 18.7397 23.1495 18.9753 23.1495 19.2659C23.1495 19.5565 23.3851 19.7921 23.6757 19.7921Z" fill="white"/>
<path d="M22.8423 21.1039C23.1272 21.1039 23.3582 20.873 23.3582 20.5881C23.3582 20.3032 23.1272 20.0723 22.8423 20.0723C22.5574 20.0723 22.3265 20.3032 22.3265 20.5881C22.3265 20.873 22.5574 21.1039 22.8423 21.1039Z" fill="white"/>
<path d="M22.5855 22.3367C22.7645 22.1239 22.7363 21.8051 22.5228 21.6253C22.3086 21.4456 21.9904 21.4738 21.8113 21.6866C21.6316 21.9008 21.6598 22.219 21.8733 22.3987C22.0868 22.5785 22.4057 22.5502 22.5855 22.3367Z" fill="white"/>
<path d="M22.1344 23.8248C22.31 23.6155 22.2831 23.3035 22.0737 23.1278C21.8644 22.9522 21.5517 22.9798 21.3761 23.1891C21.2005 23.3985 21.2273 23.7105 21.4374 23.8868C21.6474 24.0631 21.9587 24.0335 22.1344 23.8248Z" fill="white"/>
<path d="M21.832 24.6809C21.6268 24.5087 21.321 24.5356 21.1495 24.7401C20.9773 24.9453 21.0042 25.2511 21.2094 25.4226C21.414 25.5941 21.7197 25.5679 21.8919 25.3627C22.0634 25.1582 22.0365 24.8524 21.832 24.6809Z" fill="white"/>
<path d="M21.7948 26.2597C21.5992 26.0958 21.3079 26.1205 21.144 26.3161C20.9801 26.5117 21.0049 26.8037 21.2005 26.9677C21.396 27.1316 21.6881 27.1061 21.852 26.9105C22.0159 26.7149 21.9904 26.4236 21.7948 26.2597Z" fill="white"/>
<path d="M21.9642 27.8338C21.7817 27.6809 21.5097 27.7043 21.3568 27.8868C21.2032 28.07 21.228 28.3407 21.4105 28.4943C21.5923 28.6472 21.8637 28.6237 22.0173 28.4412C22.1702 28.258 22.1467 27.986 21.9642 27.8338Z" fill="white"/>
<path d="M22.3416 29.3677C22.1729 29.2258 21.9209 29.2485 21.779 29.4173C21.6371 29.586 21.6591 29.8381 21.8279 29.9799C21.9966 30.1218 22.2494 30.0991 22.3905 29.9303C22.5317 29.7616 22.5104 29.5095 22.3416 29.3677Z" fill="white"/>
<path d="M22.9202 30.8347C22.7645 30.7045 22.5324 30.7251 22.4023 30.8801C22.2714 31.0358 22.2914 31.2678 22.447 31.3987C22.6027 31.5296 22.8348 31.5089 22.9656 31.3533C23.0958 31.1976 23.0758 30.9655 22.9202 30.8347Z" fill="white"/>
<path d="M23.6784 32.2203C23.5441 32.1081 23.3451 32.1246 23.2321 32.2589C23.1192 32.3932 23.1371 32.5936 23.2707 32.7059C23.405 32.8188 23.6054 32.8009 23.7184 32.6666C23.8313 32.5323 23.8127 32.3326 23.6784 32.2203Z" fill="white"/>
<path d="M24.4443 33.9545C24.5911 33.9545 24.7101 33.8355 24.7101 33.6887C24.7101 33.5419 24.5911 33.4229 24.4443 33.4229C24.2974 33.4229 24.1784 33.5419 24.1784 33.6887C24.1784 33.8355 24.2974 33.9545 24.4443 33.9545Z" fill="white"/>
<path d="M25.6991 34.6171C25.6137 34.5455 25.4877 34.5565 25.4167 34.6412C25.3458 34.726 25.3561 34.8534 25.4408 34.9243C25.5262 34.9959 25.6529 34.9842 25.7239 34.8988C25.7948 34.8134 25.7838 34.6888 25.6991 34.6171Z" fill="white"/>
</svg>
